<?xml version="1.0" standalone="no"?><!DOCTYPE svg PUBLIC "-//W3C//DTD SVG 1.1//EN" "http://www.w3.org/Graphics/SVG/1.1/DTD/svg11.dtd"><svg class="icon" height="512" viewBox="0 0 1024 1024" version="1.1" xmlns="http://www.w3.org/2000/svg"><path d="M751.488 396.864s203.84 153.728 70.528 196.608c-142.848 45.952-213.76-76.032-225.472-176.64-0.192 0 51.456-55.68 154.944-19.968z" fill="#020202" /><path d="M747.328 396.16s193.92 146.304 67.2 187.136c-136 43.712-203.392-72.256-214.656-168.128 0 0 49.024-52.928 147.456-19.008z" fill="#B0E0ED" /><path d="M801.856 458.624s59.264 61.44 48.704 88c-9.408 23.424-69.312 55.872-137.856 31.616-32.64-11.648-56.128-38.336-64.832-63.296 0 0 16.064 40.704 70.08 53.696 56.32 13.76 107.968-2.816 114.432-26.624 8.512-30.4-27.776-73.152-30.528-83.392z" fill="#D9EFF5" /><path d="M145.664 381.824S-56 538.496 77.952 579.648c143.488 43.712 212.672-79.232 223.04-180.032 0 0-52.352-55.04-155.328-17.792z" fill="#020202" /><path d="M149.824 381.184S-42.048 530.24 85.376 569.216c136.512 41.536 202.304-75.328 212.16-171.264 0 0.064-49.728-52.288-147.712-16.768z" fill="#B0E0ED" /><path d="M96.064 444.288s-58.368 62.272-47.232 88.704c9.728 23.232 70.08 54.848 138.24 29.632 32.448-11.968 55.552-39.104 63.872-64.192 0 0-15.488 40.896-69.312 54.784-56.064 14.464-107.968-1.344-114.88-25.024-8.768-30.4 26.816-73.6 29.312-83.904z" fill="#D9EFF5" /><path d="M607.552 173.376s17.92-88.64 91.456-117.376V49.152s-74.816 25.984-115.712 113.664l24.256 10.56zM268.608 173.376S250.688 84.736 177.152 56V49.152s74.816 25.984 115.712 113.664l-24.256 10.56z" fill="#020202" /><path d="M730.688 716.48c32.32-44.416 47.168-109.376 47.936-196.608 1.728-219.968-157.632-416-336-416-177.344 0-333.184 184.128-333.184 404.16 0 162.24 57.408 270.72 211.52 352.448 0 0 93.312 48.768 232.512 60.608 0 0-9.024-28.032 25.344-59.52 54.208-49.472 87.232-56 151.872-145.088z" fill="#333333" /><path d="M721.344 701.376c31.296-43.072 45.632-105.856 46.464-190.336 1.792-212.864-152.512-402.56-325.184-402.56-171.584 0-322.432 178.24-322.432 391.104 0 156.928 55.552 262.016 204.736 341.12 0 0 90.304 47.168 225.024 58.816 0 0-8.64-27.392 24.576-57.728 52.288-47.936 84.352-54.144 146.816-140.416z" fill="#F8DC4B" /><path d="M713.6 34.432m-29.696 0a29.696 29.696 0 1 0 59.392 0 29.696 29.696 0 1 0-59.392 0Z" fill="#020202" /><path d="M158.336 33.344m-29.76 0a29.76 29.76 0 1 0 59.52 0 29.76 29.76 0 1 0-59.52 0Z" fill="#020202" /><path d="M267.328 311.68a49.28 42.944 90 1 0 85.888 0 49.28 42.944 90 1 0-85.888 0Z" fill="#020202" /><path d="M542.272 313.6a49.28 42.88 90 1 0 85.76 0 49.28 42.88 90 1 0-85.76 0Z" fill="#020202" /><path d="M542.336 460.288s-86.976-27.008-189.12-0.576c0.064 0 89.92-60.8 189.12 0.576z" fill="#45120D" /><path d="M666.496 494.08H224.064a42.24 42.24 0 0 0-42.112 42.368v445.184a42.24 42.24 0 0 0 42.112 42.368h442.432a42.24 42.24 0 0 0 42.112-42.368V536.448a42.24 42.24 0 0 0-42.112-42.368z" fill="#333333" /><path d="M656.256 506.304H234.304a40.32 40.32 0 0 0-40.192 40.384v424.704c0 22.4 17.984 40.512 40.192 40.512h421.952a40.32 40.32 0 0 0 40.192-40.512V546.688a40.192 40.192 0 0 0-40.192-40.384z" fill="#FAAF40" /><path d="M713.28 485.056c-44.16 137.92-109.76 96.128-109.76 96.128 31.104-54.528 12.16-137.088 12.16-137.088" fill="#FAAF40" /><path d="M713.28 485.056c-35.584 138.624-113.728 98.752-113.728 98.752 31.104-54.464 16.128-139.712 16.128-139.712s20.224 78.976-1.28 134.592c0 0 54.08 24.64 98.88-93.632z" fill="#020202" /><path d="M171.84 481.152c39.488 139.328 106.432 99.776 106.432 99.776-29.376-55.552-7.68-137.408-7.68-137.408" fill="#FAAF40" /><path d="M171.84 481.152C202.752 620.8 282.304 583.68 282.304 583.68c-29.376-55.488-11.712-140.16-11.712-140.16s-22.72 78.272-3.072 134.528c0 0-55.04 22.848-95.68-96.896z" fill="#020202" /><path d="M447.744 931.264a143.04 143.04 0 1 1 0-286.08 143.04 143.04 0 0 1 0 286.08z m0-265.792c-64 0-122.688 58.624-122.688 122.624s58.688 122.624 122.688 122.624c63.936 0 122.624-58.624 122.624-122.624s-58.688-122.624-122.624-122.624z m64.128 187.904a13.504 13.504 0 0 1-19.264 0l-43.392-43.392-43.392 43.392a13.632 13.632 0 1 1-19.264-19.328l43.392-43.456-43.392-43.2a13.696 13.696 0 0 1 0-19.328 13.44 13.44 0 0 1 19.264 0.064l43.392 43.392 43.392-43.392a13.888 13.888 0 0 1 13.312-3.904 13.632 13.632 0 0 1 5.952 23.04l-43.392 43.392 43.392 43.456a13.632 13.632 0 0 1 0 19.264z" fill="#FFFFFF" /></svg>